<?xml version="1.0" encoding="UTF-8"?><svg id="Layer_1" xmlns="http://www.w3.org/2000/svg" viewBox="0 0 1280 280"><defs><style>.cls-1{fill:#fff;}.cls-2{fill:#cae9ff;}.cls-3{fill:#95c9e9;}.cls-4{fill:#5fa8d3;}</style></defs><g><path class="cls-1" d="M439.42,217.96c-3.54,1.34-7.27,2.58-11.2,3.71-3.93,1.14-8.35,2.08-13.26,2.83-4.91,.75-10.28,1.12-16.09,1.12-13.12,0-24.22-2.22-33.3-6.66-9.08-4.44-16.07-10.02-20.98-16.74-4.91-6.72-8.31-13.57-10.2-20.57-1.89-6.99-2.83-13.16-2.83-18.51s.96-11.51,2.89-18.51c1.92-6.99,5.28-13.75,10.08-20.27,4.79-6.52,11.73-11.98,20.81-16.38,9.08-4.4,20.25-6.6,33.54-6.6,8.88,0,16.11,.63,21.69,1.89,5.58,1.26,11.24,2.95,16.97,5.07v33.36c-13.83-4.4-24.64-6.6-32.42-6.6s-14.24,2.28-20.1,6.84c-5.85,4.56-8.78,11.63-8.78,21.22,0,6.37,1.45,11.73,4.36,16.09,2.91,4.36,6.6,7.56,11.08,9.61,4.48,2.04,8.96,3.06,13.44,3.06,4.24,0,9.08-.63,14.5-1.89,5.42-1.26,12.02-3.06,19.8-5.42v33.36Z"/><path class="cls-1" d="M555.9,109.99l-15.68,42.55c-6.44-6.13-12.97-9.19-19.57-9.19-5.97,0-11.14,2.02-15.5,6.07-4.36,4.05-8.55,11.53-12.55,22.46v51.63h-42.44V103.5h42.44v29c2.67-7.15,7.39-14.12,14.15-20.92,6.76-6.8,14.69-10.2,23.81-10.2,4.79,0,8.98,.71,12.55,2.12,3.58,1.41,7.84,3.58,12.79,6.48Z"/><path class="cls-1" d="M698.06,103.5l-81.57,174.58h-42.91l33.01-70.25-47.5-104.32h45.62l24.4,59.65,27.7-59.65h41.26Z"/><path class="cls-1" d="M833.03,163.39c0,11.95-2.59,22.59-7.78,31.94-5.19,9.35-12.95,16.74-23.28,22.16-10.33,5.42-22.93,8.13-37.78,8.13s-27.45-2.71-37.78-8.13c-10.33-5.42-18.08-12.81-23.22-22.16-5.15-9.35-7.72-20-7.72-31.94,0-9.04,1.43-17.25,4.3-24.64,2.87-7.39,7.23-13.93,13.08-19.63,5.85-5.7,13.06-10.08,21.63-13.14,8.56-3.06,18.47-4.6,29.7-4.6s21.32,1.55,30,4.66c8.68,3.11,15.87,7.45,21.57,13.03,5.7,5.58,10,12.1,12.91,19.57,2.91,7.47,4.36,15.72,4.36,24.75Zm-44.68,0c0-9.51-2.06-16.95-6.19-22.34-4.13-5.38-10.12-8.07-17.98-8.07s-13.73,2.69-17.86,8.07c-4.13,5.38-6.19,12.83-6.19,22.34s2.08,16.9,6.25,22.4c4.16,5.5,10.1,8.25,17.8,8.25s13.85-2.73,17.98-8.19c4.13-5.46,6.19-12.95,6.19-22.46Z"/><path class="cls-1" d="M939.25,188.49c0,11-4.03,19.94-12.08,26.82-8.06,6.88-20.02,10.31-35.89,10.31-8.88,0-16.78-.81-23.69-2.42-6.92-1.61-14.46-3.91-22.63-6.9v-30.18c7.15,4.09,13.36,7.19,18.62,9.31,5.26,2.12,11.04,3.18,17.33,3.18,10.61,0,15.91-2.91,15.91-8.72,0-1.96-.77-3.71-2.3-5.25-1.53-1.53-4.2-3.26-8.02-5.19-3.81-1.92-8.9-4.22-15.27-6.9-7.86-3.46-14.54-8.09-20.04-13.91-5.5-5.81-8.25-12.93-8.25-21.34,0-5.97,1.83-11.71,5.48-17.21,3.65-5.5,9.17-10,16.56-13.5,7.39-3.5,16.31-5.25,26.76-5.25,2.51,0,5.72,.18,9.61,.53,3.89,.35,8.8,1.28,14.73,2.77,5.93,1.49,11.57,3.62,16.92,6.37v29.35c-2.52-1.49-4.62-2.75-6.31-3.77-1.69-1.02-3.95-2.16-6.78-3.42-2.83-1.26-6.15-2.38-9.96-3.36-3.81-.98-7.72-1.47-11.73-1.47-4.87,0-8.21,.94-10.02,2.83-1.81,1.89-2.71,3.77-2.71,5.66s.94,3.79,2.83,5.48c1.89,1.69,6.09,3.79,12.61,6.31,9.43,3.62,16.97,7.33,22.63,11.14,5.66,3.81,9.68,8,12.08,12.55,2.4,4.56,3.6,9.94,3.6,16.15Z"/><path class="cls-1" d="M1047.24,216.55c-4.4,2.12-10.47,4.17-18.21,6.13-7.74,1.96-15.15,2.95-22.22,2.95-30.57,0-45.85-14.93-45.85-44.79v-47.86h-19.21v-7.43l56.93-58h4.83v35.95h40.55v29.47h-40.55v38.43c0,4.48,.27,8.09,.83,10.84,.55,2.75,2.1,5.05,4.66,6.9,2.55,1.85,6.42,2.77,11.61,2.77,6.76,0,15.64-2.83,26.64-8.49v33.12Z"/><path class="cls-1" d="M1180.68,217.49c-6.21,2.44-11.95,4.4-17.21,5.89-5.27,1.49-11.59,2.24-18.98,2.24-6.99,0-11.87-1.24-14.62-3.71-2.75-2.48-4.72-5.48-5.89-9.02-4.56,3.69-9.63,6.74-15.21,9.14-5.58,2.4-12.89,3.6-21.93,3.6s-15.78-1.51-21.16-4.54c-5.38-3.02-9.16-6.84-11.32-11.43-2.16-4.6-3.24-9.33-3.24-14.2,0-7.39,1.87-13.5,5.6-18.33,3.73-4.83,8.74-8.78,15.03-11.85,6.29-3.06,14.62-6.25,24.99-9.55,5.89-1.89,10.35-3.32,13.38-4.3,3.02-.98,5.28-1.75,6.78-2.3,1.49-.55,3.06-1.26,4.72-2.12,0-5.81-1.18-10.37-3.54-13.67-2.36-3.3-7.47-4.95-15.32-4.95-9.27,0-17.88,2.04-25.82,6.13-7.94,4.09-15.21,9.35-21.81,15.8v-32.53c5.26-3.77,10.96-6.86,17.09-9.25,6.13-2.4,12.53-4.18,19.21-5.36,6.68-1.18,13.44-1.77,20.27-1.77,17.37,0,30.43,3.36,39.19,10.08,8.76,6.72,13.14,15.97,13.14,27.76v46.33c0,4.4,.41,7.68,1.24,9.84,.83,2.16,2.34,3.24,4.54,3.24,2.67,0,6.29-1.14,10.84-3.42v22.28Zm-59.06-22.99v-28.41c-10.06,4.09-17.41,7.76-22.04,11.02-4.64,3.26-6.95,7.68-6.95,13.26,0,4.01,1.16,7.07,3.48,9.19,2.32,2.12,5.01,3.18,8.07,3.18,2.91,0,5.79-.8,8.66-2.42,2.87-1.61,5.79-3.55,8.78-5.83Z"/><path class="cls-1" d="M1279,216.55c-4.4,2.12-10.47,4.17-18.21,6.13-7.74,1.96-15.15,2.95-22.22,2.95-30.57,0-45.85-14.93-45.85-44.79v-47.86h-19.21v-7.43l56.93-58h4.83v35.95h40.55v29.47h-40.55v38.43c0,4.48,.27,8.09,.83,10.84,.55,2.75,2.1,5.05,4.66,6.9,2.55,1.85,6.42,2.77,11.61,2.77,6.76,0,15.64-2.83,26.64-8.49v33.12Z"/></g><polygon class="cls-4" points="149.27 179.54 176.76 186.9 171 165.42 192.49 159.66 172.37 139.54 192.49 119.42 171 113.66 176.76 92.18 149.27 99.54 141.91 72.06 126.18 87.79 110.45 72.06 103.09 99.54 75.61 92.18 81.36 113.66 59.88 119.42 80 139.54 59.88 159.66 81.36 165.42 75.61 186.9 103.09 179.54 110.45 207.02 126.18 191.29 141.91 207.02 149.27 179.54"/><g><polygon class="cls-2" points="54.27 123.33 46.46 131.14 54.95 139.62 46.46 148.1 54.27 155.9 70.55 139.62 54.27 123.33"/><polygon class="cls-2" points="198.1 123.18 205.9 130.98 197.42 139.46 205.9 147.94 198.1 155.75 181.81 139.46 198.1 123.18"/><polygon class="cls-2" points="104.4 210 93.74 212.86 90.63 201.27 79.05 204.38 76.19 193.72 98.44 187.76 104.4 210"/><polygon class="cls-2" points="176.31 193.64 173.45 204.3 161.87 201.19 158.76 212.78 148.1 209.92 154.06 187.68 176.31 193.64"/><polygon class="cls-2" points="147.97 69.08 158.63 66.22 161.73 77.81 173.32 74.7 176.17 85.36 153.93 91.33 147.97 69.08"/><polygon class="cls-2" points="76.05 85.44 78.91 74.78 90.5 77.89 93.6 66.3 104.26 69.16 98.3 91.4 76.05 85.44"/></g><g><polygon class="cls-3" points="166.71 38.74 151.99 24.03 136.59 39.43 136.59 1 115.78 1 115.78 39.44 100.37 24.03 85.66 38.75 126.18 79.27 166.71 38.74"/><polygon class="cls-3" points="59.15 54.05 39.05 59.43 44.69 80.48 11.4 61.26 1 79.28 34.29 98.5 13.24 104.14 18.63 124.24 73.99 109.4 59.15 54.05"/><polygon class="cls-3" points="18.63 154.84 13.24 174.94 34.29 180.58 1 199.8 11.4 217.82 44.69 198.6 39.05 219.65 59.15 225.03 73.99 169.68 18.63 154.84"/><polygon class="cls-3" points="85.66 240.34 100.37 255.05 115.78 239.65 115.78 278.08 136.59 278.08 136.59 239.65 151.99 255.05 166.71 240.34 126.18 199.81 85.66 240.34"/><polygon class="cls-3" points="193.21 225.03 213.31 219.65 207.67 198.6 240.96 217.82 251.36 199.8 218.08 180.58 239.12 174.94 233.73 154.84 178.38 169.68 193.21 225.03"/><polygon class="cls-3" points="233.73 124.24 239.12 104.14 218.08 98.5 251.36 79.28 240.96 61.26 207.67 80.48 213.31 59.43 193.21 54.05 178.38 109.4 233.73 124.24"/></g><path class="cls-1" d="M126.33,157.8c-10.14,0-18.39-8.25-18.39-18.39s8.25-18.39,18.39-18.39c6.79,0,12.73,3.71,15.92,9.2l18.72-10.76-34.78-20.08-34.78,20.08v40.16l34.78,20.08,34.78-20.08-18.72-11.02c-3.18,5.49-9.12,9.2-15.92,9.2Z"/></svg>