<?xml version="1.0" encoding="UTF-8"?><svg id="Layer_1" xmlns="http://www.w3.org/2000/svg" viewBox="0 0 1280 1140"><defs><style>.cls-1{fill:#fff;}.cls-2{fill:#cae9ff;}.cls-3{fill:#95c9e9;}.cls-4{fill:#5fa8d3;}</style></defs><g><path class="cls-1" d="M146.49,1058.58c-4.77,1.8-9.81,3.47-15.11,5.01-5.3,1.54-11.26,2.81-17.89,3.82-6.63,1.01-13.86,1.51-21.7,1.51-17.7,0-32.68-2.99-44.92-8.98-12.24-5.99-21.68-13.52-28.3-22.58-6.63-9.06-11.21-18.31-13.75-27.75-2.54-9.43-3.82-17.75-3.82-24.96s1.3-15.53,3.9-24.96c2.6-9.43,7.13-18.55,13.59-27.35,6.47-8.8,15.82-16.16,28.06-22.1,12.24-5.94,27.32-8.9,45.24-8.9,11.98,0,21.73,.85,29.26,2.54,7.53,1.7,15.16,3.98,22.9,6.84v45c-18.66-5.94-33.23-8.9-43.73-8.9s-19.21,3.08-27.11,9.22c-7.9,6.15-11.85,15.69-11.85,28.62,0,8.59,1.96,15.82,5.88,21.7,3.92,5.88,8.9,10.2,14.95,12.96,6.04,2.76,12.08,4.13,18.13,4.13,5.72,0,12.24-.85,19.56-2.54,7.31-1.69,16.22-4.13,26.71-7.31v45Z"/><path class="cls-1" d="M303.6,912.93l-21.15,57.4c-8.69-8.27-17.49-12.4-26.39-12.4-8.06,0-15.03,2.73-20.91,8.19-5.88,5.46-11.53,15.56-16.93,30.29v69.64h-57.24v-161.87h57.24v39.12c3.6-9.64,9.96-19.05,19.08-28.22,9.12-9.17,19.82-13.75,32.12-13.75,6.47,0,12.11,.95,16.93,2.86,4.82,1.91,10.57,4.83,17.25,8.75Z"/><path class="cls-1" d="M495.36,904.19l-110.03,235.49h-57.88l44.52-94.77-64.08-140.72h61.53l32.91,80.46,37.37-80.46h55.65Z"/><path class="cls-1" d="M677.43,984.96c0,16.11-3.5,30.48-10.49,43.09-7,12.62-17.47,22.58-31.4,29.89-13.94,7.31-30.93,10.97-50.96,10.97s-37.02-3.66-50.96-10.97c-13.94-7.31-24.38-17.28-31.32-29.89-6.94-12.61-10.41-26.98-10.41-43.09,0-12.19,1.93-23.27,5.8-33.23,3.87-9.96,9.75-18.79,17.65-26.47,7.9-7.68,17.62-13.59,29.18-17.73,11.55-4.13,24.91-6.2,40.07-6.2s28.75,2.09,40.47,6.28c11.71,4.19,21.41,10.04,29.1,17.57,7.68,7.53,13.49,16.33,17.41,26.39,3.92,10.07,5.88,21.2,5.88,33.39Zm-60.26,0c0-12.82-2.78-22.87-8.35-30.13-5.57-7.26-13.65-10.89-24.25-10.89s-18.52,3.63-24.09,10.89c-5.57,7.26-8.35,17.31-8.35,30.13s2.81,22.79,8.43,30.21c5.62,7.42,13.62,11.13,24.01,11.13s18.68-3.68,24.25-11.05c5.57-7.37,8.35-17.46,8.35-30.29Z"/><path class="cls-1" d="M820.71,1018.83c0,14.84-5.43,26.9-16.3,36.17-10.87,9.28-27.01,13.91-48.42,13.91-11.98,0-22.63-1.09-31.96-3.26-9.33-2.17-19.51-5.27-30.53-9.3v-40.71c9.65,5.51,18.02,9.7,25.12,12.56,7.1,2.86,14.89,4.29,23.37,4.29,14.31,0,21.47-3.92,21.47-11.77,0-2.65-1.03-5.01-3.1-7.08s-5.67-4.4-10.81-7c-5.14-2.6-12-5.7-20.59-9.3-10.6-4.66-19.61-10.92-27.03-18.76-7.42-7.84-11.13-17.44-11.13-28.78,0-8.05,2.46-15.79,7.39-23.21,4.93-7.42,12.38-13.49,22.34-18.21,9.96-4.72,22-7.08,36.09-7.08,3.39,0,7.71,.24,12.96,.72s11.87,1.72,19.88,3.74c8,2.01,15.61,4.88,22.82,8.59v39.59c-3.39-2.01-6.23-3.71-8.51-5.09-2.28-1.38-5.33-2.91-9.14-4.61-3.82-1.69-8.3-3.2-13.44-4.53-5.14-1.32-10.41-1.99-15.82-1.99-6.57,0-11.08,1.27-13.52,3.82-2.44,2.54-3.66,5.09-3.66,7.63s1.27,5.12,3.82,7.39c2.54,2.28,8.21,5.12,17.01,8.51,12.72,4.88,22.9,9.89,30.53,15.03,7.63,5.14,13.06,10.79,16.3,16.93,3.23,6.15,4.85,13.41,4.85,21.78Z"/><path class="cls-1" d="M966.37,1056.67c-5.94,2.86-14.13,5.62-24.57,8.27-10.44,2.65-20.43,3.98-29.97,3.98-41.24,0-61.85-20.14-61.85-60.42v-64.56h-25.92v-10.02l76.8-78.23h6.52v48.5h54.7v39.75h-54.7v51.84c0,6.04,.37,10.92,1.11,14.63,.74,3.71,2.84,6.81,6.28,9.3,3.44,2.49,8.67,3.74,15.66,3.74,9.12,0,21.09-3.82,35.94-11.45v44.68Z"/><path class="cls-1" d="M1146.38,1057.94c-8.37,3.29-16.11,5.94-23.21,7.95-7.1,2.01-15.64,3.02-25.6,3.02-9.44,0-16.01-1.67-19.72-5.01-3.71-3.34-6.36-7.39-7.95-12.16-6.15,4.98-12.99,9.09-20.51,12.32-7.53,3.23-17.39,4.85-29.57,4.85s-21.28-2.04-28.54-6.12c-7.26-4.08-12.35-9.22-15.26-15.42-2.92-6.2-4.37-12.59-4.37-19.16,0-9.96,2.52-18.21,7.55-24.73,5.03-6.52,11.79-11.85,20.27-15.98,8.48-4.13,19.72-8.43,33.71-12.88,7.95-2.54,13.97-4.48,18.05-5.8,4.08-1.32,7.13-2.36,9.14-3.1,2.01-.74,4.13-1.69,6.36-2.86,0-7.84-1.59-13.99-4.77-18.44s-10.07-6.68-20.67-6.68c-12.51,0-24.12,2.76-34.82,8.27-10.71,5.51-20.51,12.62-29.42,21.31v-43.89c7.1-5.09,14.79-9.25,23.06-12.48,8.27-3.23,16.91-5.64,25.92-7.23,9.01-1.59,18.13-2.39,27.35-2.39,23.43,0,41.05,4.53,52.87,13.59,11.82,9.06,17.73,21.55,17.73,37.45v62.49c0,5.94,.56,10.36,1.67,13.28,1.11,2.92,3.15,4.37,6.12,4.37,3.6,0,8.48-1.54,14.63-4.61v30.05Zm-79.66-31.01v-38.32c-13.57,5.51-23.48,10.47-29.73,14.87-6.26,4.4-9.38,10.36-9.38,17.89,0,5.41,1.56,9.54,4.69,12.4,3.13,2.86,6.76,4.29,10.89,4.29,3.92,0,7.82-1.09,11.69-3.26,3.87-2.17,7.82-4.79,11.85-7.87Z"/><path class="cls-1" d="M1279,1056.67c-5.94,2.86-14.13,5.62-24.57,8.27-10.44,2.65-20.43,3.98-29.97,3.98-41.24,0-61.85-20.14-61.85-60.42v-64.56h-25.92v-10.02l76.8-78.23h6.52v48.5h54.7v39.75h-54.7v51.84c0,6.04,.37,10.92,1.11,14.63,.74,3.71,2.84,6.81,6.28,9.3,3.44,2.49,8.67,3.74,15.66,3.74,9.12,0,21.09-3.82,35.94-11.45v44.68Z"/></g><polygon class="cls-4" points="697.85 503.9 775.27 524.64 759.05 464.12 819.57 447.91 762.9 391.24 819.57 334.56 759.05 318.35 775.27 257.83 697.85 278.57 677.11 201.16 632.81 245.46 588.5 201.16 567.76 278.57 490.34 257.83 506.56 318.35 446.04 334.56 502.71 391.23 446.04 447.91 506.56 464.12 490.34 524.64 567.76 503.9 588.5 581.32 632.81 537.01 677.11 581.32 697.85 503.9"/><g><polygon class="cls-2" points="430.24 345.58 408.26 367.57 432.15 391.46 408.26 415.35 430.24 437.33 476.11 391.46 430.24 345.58"/><polygon class="cls-2" points="835.37 345.14 857.35 367.12 833.46 391.01 857.35 414.91 835.37 436.89 789.5 391.01 835.37 345.14"/><polygon class="cls-2" points="571.44 589.71 541.42 597.76 532.67 565.12 500.03 573.86 491.99 543.84 554.65 527.05 571.44 589.71"/><polygon class="cls-2" points="774.01 543.61 765.96 573.64 733.32 564.9 724.58 597.53 694.55 589.49 711.34 526.82 774.01 543.61"/><polygon class="cls-2" points="694.17 192.76 724.19 184.72 732.94 217.35 765.58 208.61 773.62 238.63 710.96 255.43 694.17 192.76"/><polygon class="cls-2" points="491.6 238.86 499.65 208.83 532.29 217.58 541.03 184.94 571.06 192.98 554.27 255.65 491.6 238.86"/></g><g><polygon class="cls-3" points="746.95 107.32 705.5 65.87 662.11 109.26 662.11 1 603.5 1 603.5 109.26 560.11 65.87 518.66 107.32 632.81 221.47 746.95 107.32"/><polygon class="cls-3" points="444 150.42 387.38 165.6 403.26 224.87 309.51 170.74 280.2 221.5 373.96 275.63 314.68 291.51 329.85 348.13 485.78 306.35 444 150.42"/><polygon class="cls-3" points="329.85 434.34 314.68 490.96 373.96 506.84 280.2 560.97 309.51 611.73 403.26 557.6 387.38 616.88 444 632.05 485.78 476.12 329.85 434.34"/><polygon class="cls-3" points="518.66 675.15 560.11 716.6 603.5 673.21 603.5 781.47 662.11 781.47 662.11 673.21 705.5 716.6 746.95 675.15 632.8 561.01 518.66 675.15"/><polygon class="cls-3" points="821.61 632.05 878.23 616.88 862.35 557.6 956.11 611.74 985.41 560.97 891.65 506.84 950.93 490.96 935.76 434.34 779.83 476.12 821.61 632.05"/><polygon class="cls-3" points="935.76 348.13 950.93 291.51 891.66 275.63 985.41 221.5 956.11 170.74 862.35 224.87 878.23 165.6 821.61 150.42 779.83 306.35 935.76 348.13"/></g><path class="cls-1" d="M633.22,442.66c-28.56,0-51.8-23.24-51.8-51.8s23.24-51.8,51.8-51.8c19.13,0,35.87,10.44,44.83,25.91l52.72-30.31-97.97-56.56-97.97,56.56v113.12l97.97,56.56,97.97-56.56-52.72-31.04c-8.97,15.47-25.7,25.91-44.83,25.91Z"/></svg>