<?xml version="1.0" encoding="UTF-8"?><svg id="Layer_1" xmlns="http://www.w3.org/2000/svg" viewBox="0 0 1024 1024"><defs><style>.cls-1{fill:#fff;}.cls-2{fill:#cae9ff;}.cls-3{fill:#95c9e9;}.cls-4{fill:#5fa8d3;}</style></defs><polygon class="cls-4" points="597.34 659.82 698.92 687.04 677.64 607.63 757.04 586.35 682.69 512 757.04 437.65 677.64 416.37 698.91 336.96 597.34 364.18 570.13 262.61 512 320.74 453.87 262.61 426.66 364.18 325.09 336.96 346.36 416.37 266.96 437.65 341.31 512 266.96 586.35 346.36 607.63 325.09 687.04 426.66 659.82 453.87 761.39 512 703.26 570.13 761.39 597.34 659.82"/><g><polygon class="cls-2" points="246.23 452.1 217.39 480.94 248.74 512.29 217.39 543.64 246.23 572.48 306.42 512.29 246.23 452.1"/><polygon class="cls-2" points="777.77 451.52 806.61 480.36 775.26 511.71 806.61 543.06 777.77 571.9 717.58 511.71 777.77 451.52"/><polygon class="cls-2" points="431.49 772.4 392.09 782.96 380.62 740.14 337.8 751.61 327.24 712.22 409.46 690.19 431.49 772.4"/><polygon class="cls-2" points="697.26 711.93 686.71 751.32 643.88 739.85 632.41 782.67 593.01 772.11 615.04 689.9 697.26 711.93"/><polygon class="cls-2" points="592.51 251.6 631.91 241.04 643.38 283.86 686.2 272.39 696.76 311.78 614.54 333.81 592.51 251.6"/><polygon class="cls-2" points="326.74 312.07 337.29 272.68 380.12 284.15 391.59 241.33 430.99 251.89 408.96 334.1 326.74 312.07"/></g><g><polygon class="cls-3" points="661.76 139.49 607.38 85.11 550.45 142.04 550.45 0 473.55 0 473.55 142.04 416.62 85.11 362.24 139.49 512 289.26 661.76 139.49"/><polygon class="cls-3" points="264.28 196.05 190 215.95 210.83 293.72 87.82 222.7 49.37 289.3 172.38 360.32 94.61 381.16 114.52 455.45 319.1 400.63 264.28 196.05"/><polygon class="cls-3" points="114.52 568.56 94.61 642.84 172.38 663.68 49.37 734.7 87.82 801.3 210.83 730.28 190 808.05 264.28 827.95 319.1 623.37 114.52 568.56"/><polygon class="cls-3" points="362.24 884.51 416.62 938.89 473.55 881.96 473.55 1024 550.45 1024 550.45 881.96 607.38 938.89 661.76 884.51 512 734.74 362.24 884.51"/><polygon class="cls-3" points="759.72 827.95 834 808.05 813.17 730.28 936.18 801.3 974.63 734.7 851.62 663.68 929.39 642.84 909.48 568.55 704.9 623.37 759.72 827.95"/><polygon class="cls-3" points="909.48 455.44 929.39 381.16 851.62 360.32 974.63 289.3 936.18 222.7 813.17 293.72 834 215.95 759.72 196.05 704.9 400.63 909.48 455.44"/></g><path class="cls-1" d="M512.54,579.47c-37.47,0-67.96-30.49-67.96-67.96s30.49-67.96,67.96-67.96c25.11,0,47.06,13.69,58.82,34l69.17-39.76-128.53-74.21-128.53,74.21v148.42l128.53,74.21,128.53-74.21-69.17-40.73c-11.77,20.3-33.72,33.99-58.82,33.99Z"/></svg>